<svg version="1.1" xmlns="http://www.w3.org/2000/svg" xmlns:xlink="http://www.w3.org/1999/xlink" width="70" height="70" viewBox="0,0,70,70"><!-- Generated with https://ivantodorovich.github.io/odoo-icon --><defs><linearGradient x1="70" y1="0" x2="0" y2="70" gradientUnits="userSpaceOnUse" id="color-1"><stop offset="0" stop-color="#56e2f9"/><stop offset="1" stop-color="#23afc6"/></linearGradient></defs><g fill="none" fill-rule="nonzero" stroke="none" stroke-width="1" stroke-linecap="butt" stroke-linejoin="miter" stroke-miterlimit="10" stroke-dasharray="" stroke-dashoffset="0" font-family="none" font-weight="none" font-size="none" text-anchor="none" style="mix-blend-mode: normal"><path d="M3.5,70c-1.933,0 -3.5,-1.567 -3.5,-3.5v-63c0,-1.933 1.567,-3.5 3.5,-3.5h63c1.933,0 3.5,1.567 3.5,3.5v63c0,1.933 -1.567,3.5 -3.5,3.5z" id="box" fill="url(#color-1)"/><path d="M65,1h-61c-1.95033,0 -3.2667,0.63396 -3.9491,1.90189c0.28378,-1.64806 1.72001,-2.90189 3.4491,-2.90189h63c1.72965,0 3.16627,1.25466 3.44938,2.90352c-0.69803,-1.26902 -2.34782,-1.90352 -4.94938,-1.90352z" id="topBoxShadow" fill="#ffffff" opacity="0.383"/><path d="M4,69h61c2.66667,0 4.33333,-1 5,-3v0.5c0,1.933 -1.567,3.5 -3.5,3.5h-63c-1.933,0 -3.5,-1.567 -3.5,-3.5c0,-0.1611 0,-0.32777 0,-0.5c0.66667,2 2,3 4,3z" id="bottomBoxShadow" fill="#000000" opacity="0.383"/><path d="M10,44.30331h11.23595v11.23595h-11.23595zM22.92135,44.30331h11.23595v11.23595h-11.23595zM35.84269,44.30331h11.23595v11.23595h-11.23595zM48.76405,44.30331h11.23595v11.23595h-11.23595zM34.1573,31.38208v11.23595h-11.23595v-10.81836l-3.84521,3.16902l-7.14596,-8.67074l8.67074,-7.14596l7.14596,8.67074l-4.31884,3.55936zM35.84269,31.38208h11.23595v11.23595h-11.23595zM35.84269,18.46074h11.23595v11.23595h-11.23595z" id="shadow" fill="#000000" opacity="0.3"/><path d="M11.93017,24.29794l8.67074,-7.14596l6.57391,7.97662l8.66787,-8.66787h11.23595v11.23595l-1.68539,1.68539h1.68539v11.23595l-1.68528,1.68528h1.68528l0,1.68541l1.68541,-1.68541h11.23595v11.23595l-16.46074,16.46074h-40.03926c-1.933,0 -3.5,-1.567 -3.5,-3.5l0,-30.27189z" id="flatShadow" fill="#000000" opacity="0.324"/><path d="M10,42.30331h11.23595v11.23595h-11.23595zM22.92135,42.30331h11.23595v11.23595h-11.23595zM35.84269,42.30331h11.23595v11.23595h-11.23595zM48.76405,42.30331h11.23595v11.23595h-11.23595zM34.1573,29.38208v11.23595h-11.23595v-10.81836l-3.84521,3.16902l-7.14596,-8.67074l8.67074,-7.14596l7.14596,8.67074l-4.31884,3.55936zM35.84269,29.38208h11.23595v11.23595h-11.23595zM35.84269,16.46074h11.23595v11.23595h-11.23595z" id="icon" fill="#ffffff"/></g></svg>